# xmcd
# 
# Track frame offsets:
#     150
#     28959
#     52300
#     90850
#     103564
#     129251
#     173078
#     207407
#     234154
# 
# Disc length: 3528
# 
# Revision: 4
# Processed by: cddbd v1.5.2PL0 Copyright (c) Steve Scherf et al.
# Submitted via: fre:ac v1.0.31
# 
DISCID=6f0dc609
DTITLE=Rory Gallagher - Live In Europe
DYEAR=1972
DGENRE=Blues
TTITLE0=Messin' With The Kid
TTITLE1=Laundromat
TTITLE2=I Could've Had Religion
TTITLE3=Pistol Slapper Blues
TTITLE4=Going To My Hometown
TTITLE5=In Your Town
TTITLE6=What In The World
TTITLE7=Hoodoo Man
TTITLE8=Bullfrog Blues
EXTD=CD 2012 - digitally remastered, 2011\nSony/Capo/Legacy - 8 86919 37012 6
EXTT0=
EXTT1=
EXTT2=
EXTT3=
EXTT4=
EXTT5=
EXTT6=[Bonus Track]
EXTT7=[Bonus Track]
EXTT8=
PLAYORDER=
